<?xml version="1.0" standalone="no"?>
<!DOCTYPE svg PUBLIC "-//W3C//DTD SVG 20010904//EN"
 "http://www.w3.org/TR/2001/REC-SVG-20010904/DTD/svg10.dtd">
<svg version="1.0" xmlns="http://www.w3.org/2000/svg"
 width="428.000000pt" height="428.000000pt" viewBox="0 0 428.000000 428.000000"
 preserveAspectRatio="xMidYMid meet">
<metadata>
Created by potrace 1.14, written by Peter Selinger 2001-2017
</metadata>
<g transform="translate(0.000000,428.000000) scale(0.100000,-0.100000)"
fill="#000000" stroke="none">
<path d="M0 2140 l0 -2140 2140 0 2140 0 0 2140 0 2140 -2140 0 -2140 0 0
-2140z m2850 1960 c0 -5 -4 -10 -10 -10 -5 0 -10 5 -10 10 0 6 5 10 10 10 6 0
10 -4 10 -10z m230 -34 c0 -11 -19 -15 -25 -6 -3 5 1 10 9 10 9 0 16 -2 16 -4z
m13 -28 c-2 -5 5 -8 16 -8 11 0 22 -4 26 -9 3 -6 26 -20 51 -33 25 -12 48 -26
50 -30 10 -15 -58 -147 -83 -164 -14 -9 -56 -18 -97 -21 l-71 -6 -28 77 -27
78 33 41 c17 23 38 48 45 55 6 7 12 17 12 22 0 4 18 7 39 7 21 -1 37 -5 34 -9z
m-183 -48 c0 -5 -5 -10 -11 -10 -5 0 -7 5 -4 10 3 6 8 10 11 10 2 0 4 -4 4
-10z m640 -170 c0 -5 -5 -10 -11 -10 -5 0 -7 5 -4 10 3 6 8 10 11 10 2 0 4 -4
4 -10z m-1593 -25 c90 -16 260 -61 282 -75 27 -16 -10 -52 -95 -91 -82 -38
-84 -40 -90 -80 -5 -26 -15 -46 -30 -55 -14 -10 -21 -21 -17 -31 4 -10 2 -14
-4 -10 -17 11 -39 -21 -25 -35 7 -7 12 -16 12 -22 0 -5 -3 -6 -7 -3 -3 4 -12
2 -20 -4 -9 -9 -13 -8 -13 0 0 22 -30 11 -31 -11 0 -18 -2 -20 -7 -6 -12 29
-80 -3 -133 -62 -46 -51 -85 -70 -144 -70 -51 0 -57 -10 -39 -64 l16 -48 -46
-68 c-49 -72 -52 -95 -19 -146 11 -17 11 -31 3 -70 -6 -27 -9 -64 -5 -82 5
-28 15 -37 85 -72 92 -46 101 -66 46 -98 -25 -15 -38 -32 -45 -59 -9 -35 -18
-43 -71 -68 -53 -25 -60 -32 -60 -57 0 -16 -5 -39 -12 -51 -16 -31 -10 -96 14
-134 21 -36 17 -53 -13 -53 -10 0 -19 -4 -19 -10 0 -5 -11 -10 -24 -10 -14 0
-37 -13 -53 -28 -15 -16 -38 -34 -50 -40 -19 -11 -20 -16 -12 -49 26 -104 29
-111 55 -117 18 -5 24 -11 19 -25 -8 -27 56 -46 113 -33 78 18 126 -7 157 -81
8 -20 20 -37 25 -37 14 0 50 -75 50 -103 0 -13 13 -35 28 -50 l28 -27 78 12
77 12 24 -30 c23 -27 24 -35 19 -117 -7 -104 0 -117 78 -143 58 -19 253 -23
271 -5 7 7 14 7 23 0 9 -7 19 -7 33 0 26 14 52 15 31 1 -13 -8 -12 -10 4 -10
10 0 36 5 57 11 45 14 58 6 84 -46 9 -19 30 -42 48 -51 18 -9 43 -25 56 -35
16 -13 40 -19 77 -19 30 0 54 -3 54 -7 0 -9 -76 -76 -143 -127 -199 -152 -421
-252 -683 -308 -96 -20 -135 -23 -324 -22 -183 0 -230 3 -317 22 -571 124
-1012 496 -1204 1016 -63 169 -90 328 -90 526 0 255 47 455 161 685 75 152
158 271 272 391 258 272 632 453 1021 494 108 11 333 4 444 -15z m391 -130
c-8 -8 -48 8 -42 16 3 5 14 4 25 -2 12 -6 19 -12 17 -14z m-88 -5 c0 -5 -4
-10 -10 -10 -5 0 -10 5 -10 10 0 6 5 10 10 10 6 0 10 -4 10 -10z m57 -29 c-1
-17 -5 -27 -9 -23 -7 7 0 52 8 52 2 0 2 -13 1 -29z m553 9 c0 -5 -4 -10 -10
-10 -5 0 -10 5 -10 10 0 6 5 10 10 10 6 0 10 -4 10 -10z m-240 -26 c0 -8 -5
-12 -10 -9 -6 4 -8 11 -5 16 9 14 15 11 15 -7z m-340 -4 c0 -5 -4 -10 -9 -10
-6 0 -13 5 -16 10 -3 6 1 10 9 10 9 0 16 -4 16 -10z m-120 -10 c0 -5 -2 -10
-4 -10 -3 0 -8 5 -11 10 -3 6 -1 10 4 10 6 0 11 -4 11 -10z m62 -12 c-7 -7
-12 -8 -12 -2 0 14 12 26 19 19 2 -3 -1 -11 -7 -17z m43 -9 c11 -17 -1 -21
-15 -4 -8 9 -8 15 -2 15 6 0 14 -5 17 -11z m83 -1 c16 -16 15 -28 0 -28 -22 0
-41 17 -34 29 9 14 19 14 34 -1z m712 -18 c0 -5 -7 -10 -15 -10 -8 0 -15 5
-15 10 0 6 7 10 15 10 8 0 15 -4 15 -10z m-950 -34 c0 -3 -4 -8 -10 -11 -5 -3
-10 -1 -10 4 0 6 5 11 10 11 6 0 10 -2 10 -4z m238 -8 c8 -8 12 -45 12 -102
l0 -91 -38 -26 c-34 -24 -68 -32 -175 -44 -46 -5 -87 9 -87 30 0 9 -5 26 -12
38 -13 24 -18 78 -5 70 4 -2 7 5 7 16 0 23 16 29 22 9 5 -14 74 24 100 56 10
12 18 15 18 9 0 -8 21 -2 58 17 63 33 82 36 100 18z m296 -16 c2 -4 10 -36 17
-70 l13 -63 -29 -23 c-24 -19 -35 -22 -69 -15 -60 11 -76 19 -76 38 0 10 -7
39 -16 66 -16 46 -16 49 1 62 20 14 150 19 159 5z m621 -12 c3 -5 2 -10 -4
-10 -5 0 -13 5 -16 10 -3 6 -2 10 4 10 5 0 13 -4 16 -10z m-85 -46 c0 -8 -4
-12 -10 -9 -5 3 -10 10 -10 16 0 5 5 9 10 9 6 0 10 -7 10 -16z m-43 -30 c-9
-9 -28 6 -21 18 4 6 10 6 17 -1 6 -6 8 -13 4 -17z m909 -2 c28 -19 23 -42 -14
-67 l-37 -25 -3 24 c-2 14 4 36 14 50 17 28 23 30 40 18z m-2036 -12 c0 -5 -5
-10 -11 -10 -5 0 -7 5 -4 10 3 6 8 10 11 10 2 0 4 -4 4 -10z m1169 -55 c17
-19 36 -35 41 -35 6 0 15 -12 21 -27 7 -16 13 -23 16 -15 3 6 9 12 14 12 17 0
9 -21 -23 -57 -18 -19 -31 -41 -30 -47 2 -6 0 -8 -4 -3 -4 4 -26 -10 -48 -32
l-41 -39 -37 15 c-31 12 -40 22 -49 57 -11 40 -7 154 6 189 5 13 19 17 54 17
42 0 52 -4 80 -35z m121 25 c0 -5 -4 -10 -10 -10 -5 0 -10 5 -10 10 0 6 5 10
10 10 6 0 10 -4 10 -10z m-274 -37 c-10 -10 -19 5 -10 18 6 11 8 11 12 0 2 -7
1 -15 -2 -18z m-1186 -3 c0 -5 -4 -10 -10 -10 -5 0 -10 5 -10 10 0 6 5 10 10
10 6 0 10 -4 10 -10z m1525 0 c-3 -5 -13 -10 -21 -10 -8 0 -12 5 -9 10 3 6 13
10 21 10 8 0 12 -4 9 -10z m-785 -35 c6 -8 9 -19 5 -25 -9 -15 -27 -1 -21 17
4 11 2 13 -9 9 -8 -3 -15 -1 -15 4 0 15 26 12 40 -5z m-690 1 c0 -3 -4 -8 -10
-11 -5 -3 -10 -1 -10 4 0 6 5 11 10 11 6 0 10 -2 10 -4z m1110 -25 c0 -12 -20
-25 -27 -18 -7 7 6 27 18 27 5 0 9 -4 9 -9z m-1166 -9 c7 -12 -64 -84 -78 -79
-7 3 -16 15 -19 26 -8 32 80 81 97 53z m1006 -33 c0 -5 -4 -9 -10 -9 -5 0 -10
7 -10 16 0 8 5 12 10 9 6 -3 10 -10 10 -16z m-840 -4 l75 0 3 -32 c2 -21 9
-33 18 -33 8 0 14 -4 14 -10 0 -5 -9 -10 -21 -10 -16 0 -20 -5 -17 -27 2 -22
8 -28 28 -29 34 -1 94 -15 100 -23 3 -4 74 -36 158 -71 143 -60 152 -66 152
-91 0 -15 -10 -40 -22 -56 -53 -66 -68 -95 -89 -173 l-23 -83 -86 -56 c-47
-31 -109 -64 -138 -75 -53 -18 -53 -18 -68 2 -12 18 -22 20 -62 17 -26 -3 -77
-7 -113 -9 l-67 -5 -6 47 c-15 104 -12 100 -95 142 -75 37 -79 41 -85 79 -4
26 -1 53 8 75 12 30 19 34 77 45 35 7 85 24 111 37 47 24 48 26 48 69 0 40 -3
45 -22 45 -15 1 -33 15 -52 42 -25 37 -28 46 -18 72 8 20 8 33 1 42 -6 8 -7
14 0 18 5 4 13 2 16 -4 8 -13 35 6 35 23 0 21 33 48 49 40 9 -4 50 -7 91 -8z
m174 0 c-4 -8 -10 -12 -15 -9 -11 6 -2 24 11 24 5 0 7 -7 4 -15z m173 -21 l2
-29 -19 25 c-19 25 -17 44 3 37 7 -2 13 -17 14 -33z m658 26 c3 -5 1 -10 -4
-10 -6 0 -11 5 -11 10 0 6 2 10 4 10 3 0 8 -4 11 -10z m-779 -26 c-4 -10 1
-22 11 -30 14 -10 14 -13 4 -14 -16 0 -51 28 -51 41 0 4 8 10 18 12 9 3 19 5
21 6 2 0 0 -6 -3 -15z m182 5 c2 6 8 11 13 11 5 0 4 -9 -3 -19 -7 -11 -15 -18
-19 -15 -4 2 -12 -4 -18 -13 -5 -10 -13 -15 -17 -11 -4 4 -1 14 6 23 8 10 9
15 1 15 -6 0 -11 5 -11 10 0 7 8 7 22 -1 16 -9 23 -9 26 0z m132 -13 c0 -11
21 -14 98 -14 100 0 142 -11 171 -46 11 -13 11 -22 0 -48 -8 -18 -12 -39 -11
-46 2 -7 -4 -15 -13 -18 -9 -4 -29 -18 -45 -32 -32 -28 -102 -40 -93 -16 5 14
-6 18 -92 34 -176 33 -161 27 -176 72 -13 39 -12 41 15 61 27 19 59 29 98 28
9 0 20 9 23 20 7 22 25 26 25 5z m740 4 c0 -5 -5 -10 -11 -10 -5 0 -7 5 -4 10
3 6 8 10 11 10 2 0 4 -4 4 -10z m-1582 -43 c20 -21 30 -55 36 -127 2 -19 10
-38 17 -41 8 -4 31 -17 52 -30 49 -27 35 -39 -46 -39 -41 0 -67 -6 -85 -19
-15 -10 -39 -21 -53 -24 -23 -6 -28 -1 -52 50 l-26 56 29 56 c32 64 86 141 98
141 5 0 18 -10 30 -23z m1197 3 c-3 -5 -13 -6 -21 -3 -12 4 -13 8 -3 14 15 9
32 2 24 -11z m405 0 c0 -5 -4 -10 -10 -10 -5 0 -10 5 -10 10 0 6 5 10 10 10 6
0 10 -4 10 -10z m130 -10 c0 -5 -4 -10 -10 -10 -5 0 -10 5 -10 10 0 6 5 10 10
10 6 0 10 -4 10 -10z m-570 -120 c0 -5 -2 -10 -4 -10 -3 0 -8 5 -11 10 -3 6
-1 10 4 10 6 0 11 -4 11 -10z m-40 -20 c0 -5 -4 -10 -10 -10 -5 0 -10 5 -10
10 0 6 5 10 10 10 6 0 10 -4 10 -10z m970 -10 c0 -5 -5 -10 -11 -10 -5 0 -7 5
-4 10 3 6 8 10 11 10 2 0 4 -4 4 -10z m-910 -10 c0 -5 -5 -10 -11 -10 -5 0 -7
5 -4 10 3 6 8 10 11 10 2 0 4 -4 4 -10z m-70 -9 c0 -5 -7 -11 -14 -14 -10 -4
-13 -1 -9 9 6 15 23 19 23 5z m-330 -21 c0 -5 -2 -10 -4 -10 -3 0 -8 5 -11 10
-3 6 -1 10 4 10 6 0 11 -4 11 -10z m286 -15 c6 -25 24 -35 24 -13 0 15 13 1
16 -17 1 -9 -4 -11 -14 -8 -10 4 -13 2 -8 -5 4 -7 2 -12 -3 -12 -6 0 -18 16
-26 36 -18 43 -18 44 -5 44 5 0 12 -11 16 -25z m84 21 c0 -11 -19 -15 -25 -6
-3 5 1 10 9 10 9 0 16 -2 16 -4z m716 -32 c9 -22 12 -48 8 -70 -6 -31 -11 -35
-60 -50 -41 -12 -61 -13 -91 -5 -62 18 -66 23 -58 78 3 27 10 54 13 60 4 7 34
14 67 16 33 2 70 4 83 5 18 2 26 -6 38 -34z m-686 -14 c0 -5 -5 -10 -11 -10
-5 0 -7 5 -4 10 3 6 8 10 11 10 2 0 4 -4 4 -10z m-154 -14 c8 -8 14 -19 14
-25 0 -14 57 -14 65 -1 4 6 12 4 21 -5 13 -13 13 -22 -6 -77 -12 -35 -26 -71
-31 -80 -5 -10 -6 -24 -3 -33 7 -18 -4 -19 -42 -5 -18 7 -30 7 -40 -1 -7 -6
-18 -8 -25 -4 -8 6 -7 10 2 17 11 7 9 8 -6 7 -26 -3 -55 9 -82 34 -26 23 -27
36 -13 87 12 43 49 60 112 54 42 -4 42 -4 16 9 -22 10 -25 16 -16 25 15 15 16
15 34 -2z m214 -22 c0 -8 -4 -12 -10 -9 -5 3 -10 10 -10 16 0 5 5 9 10 9 6 0
10 -7 10 -16z m1178 -52 c-2 -9 -18 -20 -37 -24 -61 -16 -78 7 -40 56 l21 26
29 -21 c17 -12 29 -28 27 -37z m-1223 5 c28 -46 28 -46 6 -40 -12 3 -18 9 -15
14 3 5 -1 9 -8 9 -8 0 -15 11 -16 25 -3 34 9 31 33 -8z m51 -54 c-11 -11 -17
4 -9 23 7 18 8 18 11 1 2 -10 1 -21 -2 -24z m38 22 c-4 -8 -9 -15 -13 -15 -4
0 -8 7 -8 15 0 8 6 15 13 15 8 0 11 -6 8 -15z m-458 -10 c-21 -16 -32 -13 -21
4 3 6 14 11 23 11 15 -1 15 -2 -2 -15z m454 -35 c0 -5 -4 -10 -10 -10 -5 0
-10 5 -10 10 0 6 5 10 10 10 6 0 10 -4 10 -10z m30 0 c0 -5 -4 -10 -10 -10 -5
0 -10 5 -10 10 0 6 5 10 10 10 6 0 10 -4 10 -10z m-170 -35 c-6 -7 -8 -19 -4
-28 8 -22 -8 -28 -31 -11 -19 14 -19 14 3 30 12 8 20 20 17 25 -3 5 1 6 10 3
11 -5 13 -10 5 -19z m60 14 c0 -5 -9 -9 -20 -9 -11 0 -20 4 -20 8 0 4 9 8 20
9 11 1 20 -2 20 -8z m40 1 c0 -5 -4 -10 -10 -10 -5 0 -10 5 -10 10 0 6 5 10
10 10 6 0 10 -4 10 -10z m-62 -45 c1 -14 -4 -25 -11 -25 -6 0 -13 11 -13 25
-2 33 21 33 24 0z m-148 -45 c0 -5 -2 -10 -4 -10 -3 0 -8 5 -11 10 -3 6 -1 10
4 10 6 0 11 -4 11 -10z m70 0 c0 -5 -5 -10 -11 -10 -5 0 -7 5 -4 10 3 6 8 10
11 10 2 0 4 -4 4 -10z m-102 -19 c3 -10 0 -11 -13 -3 -10 5 -27 8 -39 5 -20
-3 -20 -3 -1 6 26 13 47 10 53 -8z m817 -61 c3 -5 1 -10 -4 -10 -6 0 -11 5
-11 10 0 6 2 10 4 10 3 0 8 -4 11 -10z m-455 -10 c0 -5 -7 -7 -15 -4 -8 4 -15
8 -15 10 0 2 7 4 15 4 8 0 15 -4 15 -10z m310 -30 c0 -5 -4 -10 -10 -10 -5 0
-10 5 -10 10 0 6 5 10 10 10 6 0 10 -4 10 -10z m-312 -61 c23 -17 42 -34 42
-37 0 -11 -94 -102 -106 -102 -6 0 -23 -9 -38 -21 l-27 -21 -72 28 c-63 26
-72 33 -81 63 -6 22 -6 39 1 49 8 14 178 68 224 71 8 0 34 -13 57 -30z m-1319
-21 c14 -20 31 -37 38 -38 6 0 12 -8 13 -17 2 -67 14 -120 28 -130 21 -17 42
-16 42 1 0 8 17 16 48 20 46 6 48 6 90 -39 42 -44 43 -47 37 -93 -18 -121 -10
-111 -108 -137 -71 -18 -147 -55 -177 -85 -3 -3 -18 -12 -33 -21 -24 -13 -36
-14 -85 -3 -31 7 -82 18 -113 24 -75 15 -90 27 -96 82 -5 41 -3 46 18 51 13 4
50 30 81 59 56 52 57 54 48 91 -4 21 -16 47 -25 57 -15 17 -15 21 -1 49 9 16
16 43 16 60 0 25 9 36 58 68 31 21 66 38 76 39 11 0 30 -16 45 -38z m555 -48
c41 -17 88 -33 105 -36 28 -6 29 -9 33 -62 l3 -55 -41 -18 c-22 -10 -46 -30
-52 -43 -15 -34 -48 -53 -108 -60 -91 -11 -118 9 -150 112 -13 42 -12 46 17
97 28 50 78 94 106 95 6 0 45 -14 87 -30z m1056 10 c0 -5 -4 -10 -10 -10 -5 0
-10 5 -10 10 0 6 5 10 10 10 6 0 10 -4 10 -10z m-45 -20 c-3 -5 -11 -10 -16
-10 -6 0 -7 5 -4 10 3 6 11 10 16 10 6 0 7 -4 4 -10z m215 -34 c0 -3 -4 -8
-10 -11 -5 -3 -10 -1 -10 4 0 6 5 11 10 11 6 0 10 -2 10 -4z m-470 -36 c0 -5
-5 -10 -11 -10 -5 0 -7 5 -4 10 3 6 8 10 11 10 2 0 4 -4 4 -10z m715 -60 c3
-5 1 -10 -4 -10 -6 0 -11 5 -11 10 0 6 2 10 4 10 3 0 8 -4 11 -10z m75 6 c0
-3 -4 -8 -10 -11 -5 -3 -10 -1 -10 4 0 6 5 11 10 11 6 0 10 -2 10 -4z m-840
-36 c0 -5 -4 -10 -10 -10 -5 0 -10 5 -10 10 0 6 5 10 10 10 6 0 10 -4 10 -10z
m50 0 c0 -5 -5 -10 -11 -10 -5 0 -7 5 -4 10 3 6 8 10 11 10 2 0 4 -4 4 -10z
m305 -10 c3 -5 1 -10 -4 -10 -6 0 -11 5 -11 10 0 6 2 10 4 10 3 0 8 -4 11 -10z
m-480 -27 c28 -3 57 -12 66 -20 10 -8 19 -11 21 -6 3 4 4 3 2 -3 -1 -6 9 -23
22 -38 20 -21 23 -29 14 -44 -11 -16 -11 -16 -6 1 3 9 1 17 -4 17 -13 0 -13
-37 0 -45 15 -9 12 -25 -4 -25 -8 0 -17 -13 -21 -29 -5 -23 -15 -33 -43 -42
-20 -6 -46 -16 -57 -22 -24 -13 -26 -14 -92 -15 -30 -1 -53 -7 -53 -13 0 -11
-25 -39 -34 -39 -4 0 -4 11 0 24 5 22 3 23 -31 22 -20 0 -40 -8 -45 -16 -8
-13 -10 -12 -10 3 0 14 -5 17 -20 12 -12 -4 -20 -2 -20 5 0 6 5 8 10 5 6 -3
10 -2 10 4 0 6 -10 16 -22 22 -36 19 -38 30 -11 58 13 14 31 38 39 54 8 15 21
27 28 27 17 0 125 72 151 100 13 14 26 19 40 15 11 -3 43 -8 70 -12z m95 6 c0
-11 -27 -12 -34 -1 -2 4 4 9 15 9 10 1 19 -2 19 -8z m380 -19 c0 -5 -5 -10
-11 -10 -5 0 -7 5 -4 10 3 6 8 10 11 10 2 0 4 -4 4 -10z m-180 -10 c0 -5 -4
-10 -10 -10 -5 0 -10 5 -10 10 0 6 5 10 10 10 6 0 10 -4 10 -10z m-110 -16 c0
-8 -4 -12 -10 -9 -5 3 -10 10 -10 16 0 5 5 9 10 9 6 0 10 -7 10 -16z m190 2
c0 -3 -4 -8 -10 -11 -5 -3 -10 -1 -10 4 0 6 5 11 10 11 6 0 10 -2 10 -4z
m-210 -20 c0 -11 -19 -15 -25 -6 -3 5 1 10 9 10 9 0 16 -2 16 -4z m170 -26 c0
-5 -4 -10 -10 -10 -5 0 -10 5 -10 10 0 6 5 10 10 10 6 0 10 -4 10 -10z m240 6
c0 -11 -19 -15 -25 -6 -3 5 1 10 9 10 9 0 16 -2 16 -4z m-207 -56 c-3 -11 -9
-17 -14 -15 -10 7 -1 35 11 35 5 0 6 -9 3 -20z m-113 -15 c8 -9 8 -15 2 -15
-18 0 -42 12 -42 21 0 14 26 10 40 -6z m-937 -71 c34 -13 76 -24 95 -24 25 0
41 -8 62 -30 15 -16 35 -30 44 -30 10 0 13 -6 10 -15 -4 -8 -1 -15 6 -15 6 0
8 -5 5 -10 -4 -6 -1 -17 5 -25 15 -18 6 -34 -52 -85 -39 -34 -60 -44 -120 -56
-56 -12 -81 -22 -105 -46 -30 -29 -35 -31 -58 -18 -14 8 -38 33 -53 57 -33 52
-84 73 -181 73 -92 0 -109 16 -89 87 13 51 32 69 103 106 131 68 213 76 328
31z m277 9 c0 -10 -20 -40 -20 -31 0 3 -3 13 -6 22 -4 11 -1 16 10 16 9 0 16
-3 16 -7z m30 -14 c0 -11 -4 -18 -10 -14 -5 3 -7 12 -3 20 7 21 13 19 13 -6z
m560 7 c0 -3 -4 -8 -10 -11 -5 -3 -10 -1 -10 4 0 6 5 11 10 11 6 0 10 -2 10
-4z m-70 -26 c0 -5 -4 -10 -10 -10 -5 0 -10 5 -10 10 0 6 5 10 10 10 6 0 10
-4 10 -10z m-30 -4 c0 -3 -4 -8 -10 -11 -5 -3 -10 -1 -10 4 0 6 5 11 10 11 6
0 10 -2 10 -4z m-495 -16 c-3 -5 -11 -10 -16 -10 -6 0 -7 5 -4 10 3 6 11 10
16 10 6 0 7 -4 4 -10z m-75 -20 c0 -5 -2 -10 -4 -10 -3 0 -8 5 -11 10 -3 6 -1
10 4 10 6 0 11 -4 11 -10z m962 -59 c7 -11 18 -17 27 -13 11 4 13 1 8 -12 -4
-10 -2 -26 3 -36 14 -27 4 -44 -41 -70 l-41 -22 -27 20 c-22 17 -26 27 -23 61
4 68 17 91 52 91 18 0 34 -7 42 -19z m83 -1 c3 -5 -1 -10 -9 -10 -9 0 -16 5
-16 10 0 6 4 10 9 10 6 0 13 -4 16 -10z m-495 -10 c0 -5 -2 -10 -4 -10 -2 0
-12 -3 -22 -7 -16 -6 -17 -5 -4 10 17 19 30 22 30 7z m110 -4 c0 -3 -4 -8 -10
-11 -5 -3 -10 -1 -10 4 0 6 5 11 10 11 6 0 10 -2 10 -4z m-490 -26 c20 -20 13
-34 -14 -24 -9 3 -16 15 -16 25 0 24 5 24 30 -1z m190 10 c0 -5 -7 -10 -15
-10 -8 0 -15 5 -15 10 0 6 7 10 15 10 8 0 15 -4 15 -10z m240 0 c0 -5 -4 -10
-10 -10 -5 0 -10 5 -10 10 0 6 5 10 10 10 6 0 10 -4 10 -10z m251 -13 c-13
-13 -26 -3 -16 12 3 6 11 8 17 5 6 -4 6 -10 -1 -17z m-595 -14 c-10 -10 -19 5
-10 18 6 11 8 11 12 0 2 -7 1 -15 -2 -18z m194 -4 c0 -22 -13 -25 -29 -6 -8
10 -7 17 1 25 15 15 28 6 28 -19z m247 25 c-3 -3 -12 -4 -19 -1 -8 3 -5 6 6 6
11 1 17 -2 13 -5z m-307 -29 c0 -8 -4 -15 -9 -15 -13 0 -22 16 -14 24 11 11
23 6 23 -9z m-120 -15 c0 -5 -4 -10 -10 -10 -5 0 -10 5 -10 10 0 6 5 10 10 10
6 0 10 -4 10 -10z m370 0 c0 -5 -4 -10 -10 -10 -5 0 -10 5 -10 10 0 6 5 10 10
10 6 0 10 -4 10 -10z m-495 -6 c56 8 67 7 83 -8 11 -9 25 -15 33 -13 8 2 11 2
7 0 -17 -9 -7 -34 17 -45 14 -6 28 -21 30 -32 12 -56 8 -74 -30 -133 -32 -50
-46 -64 -75 -71 -25 -6 -35 -13 -33 -26 0 -10 -12 -25 -30 -36 -18 -10 -37
-22 -43 -27 -5 -4 -30 -19 -55 -33 -40 -22 -54 -24 -166 -24 -107 1 -128 4
-170 25 -26 13 -50 32 -51 42 -7 37 9 68 42 83 25 12 37 28 50 65 28 76 112
139 188 139 9 0 38 22 64 50 32 34 51 47 61 42 7 -5 43 -4 78 2z m673 -21 c-5
-7 -14 -10 -19 -7 -16 10 -9 23 10 21 15 -1 17 -4 9 -14z m-193 -3 c3 -5 -1
-10 -9 -10 -9 0 -16 5 -16 10 0 6 4 10 9 10 6 0 13 -4 16 -10z m-1119 -15 c-3
-8 0 -15 7 -15 7 0 25 -12 41 -26 35 -31 30 -36 -63 -59 -62 -15 -65 -15 -83
3 -37 36 13 113 62 97 12 -4 20 -2 20 4 0 6 5 11 11 11 6 0 9 -7 5 -15z m834
-15 c0 -5 -4 -10 -10 -10 -5 0 -10 5 -10 10 0 6 5 10 10 10 6 0 10 -4 10 -10z
m430 0 c0 -5 -4 -10 -10 -10 -5 0 -10 5 -10 10 0 6 5 10 10 10 6 0 10 -4 10
-10z m-310 -50 c0 -5 -5 -10 -11 -10 -5 0 -7 5 -4 10 3 6 8 10 11 10 2 0 4 -4
4 -10z m483 -85 c-3 -9 -8 -14 -10 -11 -3 3 -2 9 2 15 9 16 15 13 8 -4z m-613
-25 c0 -5 -5 -10 -11 -10 -5 0 -7 5 -4 10 3 6 8 10 11 10 2 0 4 -4 4 -10z
m255 -70 c-3 -5 -11 -10 -16 -10 -6 0 -7 5 -4 10 3 6 11 10 16 10 6 0 7 -4 4
-10z m145 0 c0 -5 -4 -10 -10 -10 -5 0 -10 5 -10 10 0 6 5 10 10 10 6 0 10 -4
10 -10z m-60 -45 c0 -8 -4 -15 -10 -15 -5 0 -10 7 -10 15 0 8 5 15 10 15 6 0
10 -7 10 -15z m315 5 c3 -5 1 -10 -4 -10 -6 0 -11 5 -11 10 0 6 2 10 4 10 3 0
8 -4 11 -10z m-595 -10 c0 -5 -4 -10 -10 -10 -5 0 -10 5 -10 10 0 6 5 10 10
10 6 0 10 -4 10 -10z m40 0 c0 -5 -5 -10 -11 -10 -5 0 -7 5 -4 10 3 6 8 10 11
10 2 0 4 -4 4 -10z m150 -20 c0 -5 -4 -10 -10 -10 -5 0 -10 5 -10 10 0 6 5 10
10 10 6 0 10 -4 10 -10z m-255 -30 c3 -6 -1 -7 -9 -4 -18 7 -21 14 -7 14 6 0
13 -4 16 -10z m193 -8 c-2 -4 6 -27 16 -50 25 -56 16 -64 -76 -67 -102 -3
-215 41 -184 72 3 4 37 17 74 30 64 21 175 32 170 15z m-251 -106 c-10 -26
-38 -20 -33 7 3 12 5 26 5 32 1 5 8 2 17 -7 9 -9 14 -24 11 -32z m-27 -30 c0
-11 -19 -15 -25 -6 -3 5 1 10 9 10 9 0 16 -2 16 -4z"/>
<path d="M1296 2958 c-48 -32 -50 -36 -78 -132 -16 -54 -27 -101 -24 -103 2
-3 31 -1 63 3 54 6 63 11 123 70 53 51 68 73 81 117 l16 55 -37 11 c-60 18
-92 13 -144 -21z"/>
<path d="M1531 2609 c-23 -19 -23 -21 -8 -37 16 -15 18 -15 37 4 13 12 18 27
14 37 -8 21 -13 21 -43 -4z"/>
<path d="M1117 2308 c-17 -18 -17 -20 5 -38 26 -21 37 -11 30 26 -6 32 -13 35
-35 12z"/>
<path d="M968 2234 c-17 -9 -31 -30 -42 -61 -21 -61 -21 -60 15 -68 47 -11 69
15 69 81 0 29 -3 55 -8 57 -4 3 -19 -1 -34 -9z"/>
<path d="M1255 2042 c-3 -8 -4 -16 -3 -16 2 -1 15 -10 30 -19 30 -19 45 -8 29
22 -14 25 -48 33 -56 13z"/>
<path d="M1260 1593 c-23 -29 -21 -66 5 -92 20 -20 112 -19 167 2 47 18 48 19
34 46 -11 19 -31 33 -78 49 -81 29 -102 28 -128 -5z"/>
<path d="M1923 1470 c-28 -11 -28 -18 -4 -47 24 -29 27 -29 43 5 24 46 9 61
-39 42z"/>
<path d="M1792 1427 c-17 -10 -20 -15 -10 -25 22 -22 48 -14 48 13 0 28 -5 30
-38 12z"/>
<path d="M1905 1154 c-36 -38 -32 -59 16 -83 23 -12 43 -20 45 -19 2 2 16 21
32 43 l28 39 -33 23 c-44 30 -58 29 -88 -3z"/>
</g>
</svg>
